<svg width="184" height="36" viewBox="0 0 184 36" fill="none" xmlns="http://www.w3.org/2000/svg">
<path d="M7.26 25.97C9.58 25.97 10.74 25.11 10.74 23.39C10.74 22.69 10.56 22.14 10.2 21.74C9.86 21.34 9.22 20.99 8.28 20.69L5.82 19.88C2.88 18.92 1.41 16.99 1.41 14.09C1.41 12.41 1.93 11.03 2.97 9.95C4.03 8.85 5.68 8.3 7.92 8.3C8.86 8.3 9.79 8.41 10.71 8.63C11.63 8.83 12.61 9.16 13.65 9.62L12.54 12.71C11.58 12.33 10.76 12.06 10.08 11.9C9.42 11.72 8.74 11.63 8.04 11.63C7.12 11.63 6.39 11.8 5.85 12.14C5.33 12.46 5.07 13.05 5.07 13.91C5.07 14.55 5.25 15.08 5.61 15.5C5.99 15.9 6.61 16.24 7.47 16.52L9.93 17.33C11.41 17.83 12.52 18.56 13.26 19.52C14.02 20.46 14.4 21.71 14.4 23.27C14.4 25.07 13.83 26.53 12.69 27.65C11.55 28.75 9.76 29.3 7.32 29.3C6.36 29.3 5.36 29.19 4.32 28.97C3.3 28.73 2.18 28.33 0.96 27.77L2.07 24.68C3.19 25.16 4.14 25.5 4.92 25.7C5.72 25.88 6.5 25.97 7.26 25.97ZM29.4473 28.13C28.4073 28.55 27.4273 28.85 26.5073 29.03C25.5873 29.21 24.7173 29.3 23.8973 29.3C21.6373 29.3 19.9273 28.66 18.7673 27.38C17.6073 26.1 17.0273 24.4 17.0273 22.28V20.48C17.0273 19.06 17.2873 17.83 17.8073 16.79C18.3273 15.75 19.0673 14.94 20.0273 14.36C20.9873 13.78 22.1173 13.49 23.4173 13.49C24.4773 13.49 25.4673 13.71 26.3873 14.15C27.3273 14.57 28.0873 15.24 28.6673 16.16C29.2673 17.06 29.5673 18.22 29.5673 19.64C29.5673 20.06 29.5373 20.51 29.4773 20.99C29.4173 21.45 29.3173 21.94 29.1773 22.46H20.3573C20.3973 23.7 20.7073 24.63 21.2873 25.25C21.8673 25.87 22.7973 26.18 24.0773 26.18C24.7573 26.18 25.4573 26.1 26.1773 25.94C26.9173 25.78 27.6773 25.54 28.4573 25.22L29.4473 28.13ZM23.4173 16.4C22.4973 16.4 21.7773 16.7 21.2573 17.3C20.7573 17.88 20.4673 18.72 20.3873 19.82H26.1473C26.1673 19.72 26.1773 19.63 26.1773 19.55C26.1773 19.45 26.1773 19.36 26.1773 19.28C26.1773 18.32 25.9073 17.6 25.3673 17.12C24.8273 16.64 24.1773 16.4 23.4173 16.4ZM45.0619 29.15C44.0419 29.15 43.2219 28.94 42.6019 28.52C42.0019 28.1 41.5619 27.58 41.2819 26.96C40.4219 27.76 39.5919 28.35 38.7919 28.73C37.9919 29.11 37.1319 29.3 36.2119 29.3C34.8719 29.3 33.8819 28.87 33.2419 28.01C32.6219 27.15 32.3119 26.06 32.3119 24.74C32.3119 23.86 32.4719 23.09 32.7919 22.43C33.1319 21.75 33.6819 21.22 34.4419 20.84C35.2019 20.46 36.2419 20.27 37.5619 20.27C38.0819 20.27 38.6219 20.31 39.1819 20.39C39.7419 20.45 40.3019 20.53 40.8619 20.63V18.86C40.8619 18.02 40.6319 17.45 40.1719 17.15C39.7119 16.83 39.0919 16.67 38.3119 16.67C37.7119 16.67 37.0519 16.75 36.3319 16.91C35.6319 17.07 34.8719 17.32 34.0519 17.66L33.0619 14.72C35.0819 13.9 36.9119 13.49 38.5519 13.49C40.0319 13.49 41.1719 13.74 41.9719 14.24C42.7919 14.74 43.3619 15.4 43.6819 16.22C44.0019 17.04 44.1619 17.92 44.1619 18.86V24.71C44.1619 25.01 44.2419 25.3 44.4019 25.58C44.5819 25.84 44.9219 25.97 45.4219 25.97H45.7519V29.15H45.0619ZM35.6419 24.68C35.6419 25.22 35.7619 25.65 36.0019 25.97C36.2419 26.27 36.5919 26.42 37.0519 26.42C37.5119 26.42 38.0319 26.3 38.6119 26.06C39.1919 25.82 39.9419 25.26 40.8619 24.38V23.09C39.8219 22.91 38.8019 22.82 37.8019 22.82C37.0219 22.82 36.4619 22.98 36.1219 23.3C35.8019 23.62 35.6419 24.08 35.6419 24.68ZM57.897 28.49C57.377 28.73 56.777 28.92 56.097 29.06C55.417 29.22 54.727 29.3 54.027 29.3C52.867 29.3 51.937 29.06 51.237 28.58C50.537 28.1 50.027 27.43 49.707 26.57C49.407 25.71 49.257 24.73 49.257 23.63V16.79H46.797V13.79H49.257V9.83H52.707V13.79H57.447V16.79H52.707V23.63C52.707 24.55 52.877 25.19 53.217 25.55C53.577 25.89 54.087 26.06 54.747 26.06C55.067 26.06 55.407 26.03 55.767 25.97C56.147 25.89 56.567 25.76 57.027 25.58L57.897 28.49ZM101.596 25.97C103.916 25.97 105.076 25.11 105.076 23.39C105.076 22.69 104.896 22.14 104.536 21.74C104.196 21.34 103.556 20.99 102.616 20.69L100.156 19.88C97.2159 18.92 95.7459 16.99 95.7459 14.09C95.7459 12.41 96.2659 11.03 97.3059 9.95C98.3659 8.85 100.016 8.3 102.256 8.3C103.196 8.3 104.126 8.41 105.046 8.63C105.966 8.83 106.946 9.16 107.986 9.62L106.876 12.71C105.916 12.33 105.096 12.06 104.416 11.9C103.756 11.72 103.076 11.63 102.376 11.63C101.456 11.63 100.726 11.8 100.186 12.14C99.6659 12.46 99.4059 13.05 99.4059 13.91C99.4059 14.55 99.5859 15.08 99.9459 15.5C100.326 15.9 100.946 16.24 101.806 16.52L104.266 17.33C105.746 17.83 106.856 18.56 107.596 19.52C108.356 20.46 108.736 21.71 108.736 23.27C108.736 25.07 108.166 26.53 107.026 27.65C105.886 28.75 104.096 29.3 101.656 29.3C100.696 29.3 99.6959 29.19 98.6559 28.97C97.6359 28.73 96.5159 28.33 95.2959 27.77L96.4059 24.68C97.5259 25.16 98.4759 25.5 99.2559 25.7C100.056 25.88 100.836 25.97 101.596 25.97ZM123.783 28.13C122.743 28.55 121.763 28.85 120.843 29.03C119.923 29.21 119.053 29.3 118.233 29.3C115.973 29.3 114.263 28.66 113.103 27.38C111.943 26.1 111.363 24.4 111.363 22.28V20.48C111.363 19.06 111.623 17.83 112.143 16.79C112.663 15.75 113.403 14.94 114.363 14.36C115.323 13.78 116.453 13.49 117.753 13.49C118.813 13.49 119.803 13.71 120.723 14.15C121.663 14.57 122.423 15.24 123.003 16.16C123.603 17.06 123.903 18.22 123.903 19.64C123.903 20.06 123.873 20.51 123.813 20.99C123.753 21.45 123.653 21.94 123.513 22.46H114.693C114.733 23.7 115.043 24.63 115.623 25.25C116.203 25.87 117.133 26.18 118.413 26.18C119.093 26.18 119.793 26.1 120.513 25.94C121.253 25.78 122.013 25.54 122.793 25.22L123.783 28.13ZM117.753 16.4C116.833 16.4 116.113 16.7 115.593 17.3C115.093 17.88 114.803 18.72 114.723 19.82H120.483C120.503 19.72 120.513 19.63 120.513 19.55C120.513 19.45 120.513 19.36 120.513 19.28C120.513 18.32 120.243 17.6 119.703 17.12C119.163 16.64 118.513 16.4 117.753 16.4ZM130.518 20.51V22.28C130.518 23.56 130.748 24.52 131.208 25.16C131.668 25.8 132.408 26.12 133.428 26.12C133.928 26.12 134.488 26.06 135.108 25.94C135.748 25.8 136.438 25.59 137.178 25.31L138.168 28.22C137.268 28.58 136.418 28.85 135.618 29.03C134.818 29.21 134.028 29.3 133.248 29.3C131.248 29.3 129.718 28.66 128.658 27.38C127.598 26.1 127.068 24.4 127.068 22.28V20.51C127.068 18.37 127.598 16.67 128.658 15.41C129.718 14.13 131.248 13.49 133.248 13.49C134.008 13.49 134.778 13.58 135.558 13.76C136.338 13.94 137.158 14.2 138.018 14.54L137.028 17.51C135.588 16.95 134.388 16.67 133.428 16.67C132.408 16.67 131.668 16.99 131.208 17.63C130.748 18.25 130.518 19.21 130.518 20.51ZM150.385 29V26.99C149.465 27.79 148.605 28.38 147.805 28.76C147.005 29.12 146.195 29.3 145.375 29.3C144.015 29.3 142.965 28.84 142.225 27.92C141.485 26.98 141.115 25.67 141.115 23.99V13.79H144.565V23.57C144.565 25.25 145.185 26.09 146.425 26.09C146.925 26.09 147.465 25.97 148.045 25.73C148.645 25.49 149.365 25.03 150.205 24.35V13.79H153.655V29H150.385ZM166.985 16.94C166.045 16.94 165.145 17.09 164.285 17.39C163.445 17.67 162.635 18.13 161.855 18.77V29H158.405V13.79H161.675V16.13C162.695 15.17 163.605 14.49 164.405 14.09C165.205 13.69 166.065 13.49 166.985 13.49V16.94ZM181.557 28.13C180.517 28.55 179.537 28.85 178.617 29.03C177.697 29.21 176.827 29.3 176.007 29.3C173.747 29.3 172.037 28.66 170.877 27.38C169.717 26.1 169.137 24.4 169.137 22.28V20.48C169.137 19.06 169.397 17.83 169.917 16.79C170.437 15.75 171.177 14.94 172.137 14.36C173.097 13.78 174.227 13.49 175.527 13.49C176.587 13.49 177.577 13.71 178.497 14.15C179.437 14.57 180.197 15.24 180.777 16.16C181.377 17.06 181.677 18.22 181.677 19.64C181.677 20.06 181.647 20.51 181.587 20.99C181.527 21.45 181.427 21.94 181.287 22.46H172.467C172.507 23.7 172.817 24.63 173.397 25.25C173.977 25.87 174.907 26.18 176.187 26.18C176.867 26.18 177.567 26.1 178.287 25.94C179.027 25.78 179.787 25.54 180.567 25.22L181.557 28.13ZM175.527 16.4C174.607 16.4 173.887 16.7 173.367 17.3C172.867 17.88 172.577 18.72 172.497 19.82H178.257C178.277 19.72 178.287 19.63 178.287 19.55C178.287 19.45 178.287 19.36 178.287 19.28C178.287 18.32 178.017 17.6 177.477 17.12C176.937 16.64 176.287 16.4 175.527 16.4Z" fill="white"/>
<path d="M69.875 12.375C69.875 10.2201 70.731 8.15349 72.2548 6.62976C73.7785 5.10602 75.8451 4.25 78 4.25C80.1549 4.25 82.2215 5.10602 83.7452 6.62976C85.269 8.15349 86.125 10.2201 86.125 12.375V14.25H88.625V30.5H67.375V14.25H69.875V12.375ZM72.375 14.25H83.625V12.375C83.625 10.8832 83.0324 9.45242 81.9775 8.39752C80.9226 7.34263 79.4918 6.75 78 6.75C76.5082 6.75 75.0774 7.34263 74.0225 8.39752C72.9676 9.45242 72.375 10.8832 72.375 12.375V14.25ZM69.875 16.75V28H86.125V16.75H69.875ZM74.25 21.125H81.75V23.625H74.25V21.125Z" fill="#F4C430"/>
</svg>
